<?xml version="1.0" encoding="UTF-8" standalone="no"?><!DOCTYPE svg PUBLIC "-//W3C//DTD SVG 1.1//EN" "http://www.w3.org/Graphics/SVG/1.1/DTD/svg11.dtd"><svg width="100%" height="100%" viewBox="0 0 2900 2900" version="1.1" xmlns="http://www.w3.org/2000/svg" xmlns:xlink="http://www.w3.org/1999/xlink" xml:space="preserve" xmlns:serif="http://www.serif.com/" style="fill-rule:evenodd;clip-rule:evenodd;stroke-linejoin:round;stroke-miterlimit:2;"><path d="M1427.438,1595.363c0,0 -0.8,-2.517 -4.733,-3c-0.067,-0.033 -8.708,-0.979 -10.908,3.108c-0.592,1.108 -1.233,2.267 -1.917,3.5l-106.608,185.167c-0.058,0.113 -0.113,0.167 -0.167,0.279c-0.558,1 -1.167,1.946 -1.725,2.946c-36.833,64 -73.667,128.054 -110.554,192.054c-3.721,6.5 -10.667,10.5 -18.167,10.5l-78.554,-0.112l88.888,0c-113.446,0 -239.779,0.058 -356.5,0c-16.112,0 -26.167,-17.388 -18.113,-31.333c57.779,-100.442 116.392,-202.5 175.612,-305.388c1.279,-2.221 1.279,-5 0,-7.221c-37.112,-64.058 -74.221,-128.167 -111.333,-192.279c-2.779,-4.779 -9.667,-4.779 -12.446,0c-102.942,178.779 -205.833,357.554 -308.775,536.333c-9.558,16.554 -19.058,33.112 -28.612,49.667c-9.5,16.446 -18.946,32.887 -28.333,49.221c-18.833,32.725 -37.554,65.279 -56.054,97.392c-1.833,3.275 -0.833,7.054 1.775,9.167c21.725,-0.225 241.392,-2.225 245.5,-2.279c122.779,-0.779 250.833,0.333 381.833,0.446c76.946,0.108 155,0.167 233.612,0.221c10.054,0 19.333,-5.387 24.387,-14.054c31.558,-54.892 63.167,-109.779 94.725,-164.612c-1.779,3.721 -3.279,6.612 -3.779,7.721c36.387,-63.054 93.054,-162.833 129.333,-225.775c0.221,-0.446 0.5,-0.892 -0.183,-0.679l-118.204,-200.987Z" style="fill:#333;fill-rule:nonzero;"/><path d="M2458.525,2163.104c-8.233,14.229 -10.288,17.779 -18.529,32.012c-64.708,-0.096 -130.683,-0.179 -197.554,-0.229c-147,-0.167 -298.388,-0.275 -451.113,-0.442l-0.054,0c-14.112,0.054 -28.279,0 -42.446,0c-60.454,-0.046 -121.058,-0.092 -181.633,-0.142c-16.408,-0.008 -26.671,-17.767 -18.487,-31.992c30.221,-52.55 60.479,-105.079 90.733,-157.646c0.721,-1.221 1.446,-2.5 2.167,-3.721c6.6,-3.812 11.883,-6.858 18.483,-10.667l248.796,0c71.721,0 143.388,0 215.108,0.054c0,-0.054 -0.054,-0.112 -0.108,-0.167c-35.892,-62.054 -71.833,-124.112 -107.779,-186.167c-40.167,-69.446 -80.333,-138.887 -120.554,-208.333l-10.333,-17.833c-25.45,-43.962 -50.908,-87.967 -76.358,-131.933c-3.804,-6.579 -10.808,-10.629 -18.408,-10.65c-23.763,-0.054 -47.558,-0.146 -71.346,-0.196l-127.463,-0.254c-8.192,-14.221 -10.254,-17.8 -18.454,-32.021l7.304,-12.667l92.5,-160.392l0.279,-0.554l13.333,0c50.333,0 100.667,0 151,0.054l82.721,0c0.167,0.333 0.392,0.667 0.558,1c13.167,22.892 26.388,45.779 39.608,68.667c6,10.333 11.946,20.667 17.892,31c8.275,14.333 16.554,28.667 24.833,43l0,0.058c3.275,5.721 6.608,11.442 9.888,17.167c39.446,68.5 78.946,137.054 118.446,205.554c0.775,1.333 1.5,2.612 2.275,3.946c75,130.167 150,260.333 225,390.5l0.058,0c0,0.054 0.054,0.167 0.108,0.221c33.175,57.596 66.35,115.183 99.529,172.771Z" style="fill-rule:nonzero;"/><path d="M1819.842,1037.938c5.125,8.883 -1.287,19.996 -11.537,19.996l-63.167,0c-47.767,-0.054 -95.538,-0.054 -143.304,-0.054c-4.763,0 -9.163,-2.542 -11.533,-6.667c-0.946,-1.633 -1.883,-3.267 -2.829,-4.892c-37.604,-64.888 -75.167,-129.775 -112.779,-194.667c-0.833,-1.5 -1.721,-3.054 -2.604,-4.554c-0.171,-0.279 -0.333,-0.554 -0.45,-0.833c-40.333,70.113 -80.946,140.721 -121.721,211.612c-37.879,65.925 -124.558,210.888 -122.892,213.775c0.112,0.167 0.225,0.333 0.333,0.5c26.662,46.267 53.325,92.542 79.983,138.812c2.383,4.138 2.375,9.233 -0.033,13.354l-103.058,176.946c-5.15,8.838 -17.917,8.817 -23.033,-0.037c-23.925,-41.375 -47.908,-82.75 -71.858,-124.129c-0.054,-0.113 -0.167,-0.279 -0.221,-0.388c-38.537,-66.608 -77.133,-133.208 -115.679,-199.808c-2.392,-4.138 -2.392,-9.254 0.025,-13.387c0.2,-0.346 0.4,-0.688 0.6,-1.029c-0.225,0 -0.5,0 -0.779,-0.054c38.112,-66.221 76.221,-132.446 114.112,-198.388c0.275,-0.5 0.554,-1 0.833,-1.5c0.942,-1.558 1.833,-3.112 2.725,-4.667c81.442,-141.667 162.108,-282.058 240.717,-418.725c36.317,-63.067 72.142,-125.358 107.379,-186.642c5.117,-8.9 17.921,-8.908 23.05,-0.008c35.554,61.7 71.638,124.279 108.129,187.542c0.167,0.333 0.387,0.608 0.554,0.942c64.779,112.333 130.779,226.725 197.388,342.167c10.55,18.246 21.1,36.496 31.65,54.783Z" style="fill:#ff7f00;fill-rule:nonzero;"/></svg>